<svg width="122" height="38" viewBox="0 0 122 38" fill="none" xmlns="http://www.w3.org/2000/svg">
<g filter="url(#filter0_d_1_3)">
<path d="M15.2969 20.2305V0.5625H21V20.25C21 22.138 20.6354 23.7721 19.9062 25.1523C19.1901 26.5195 18.2135 27.5677 16.9766 28.2969C15.7396 29.026 14.3464 29.3906 12.7969 29.3906C11.2083 29.3906 9.78906 29.0781 8.53906 28.4531C7.30208 27.8151 6.32552 26.8516 5.60938 25.5625C4.89323 24.2604 4.53516 22.6068 4.53516 20.6016H10.2773C10.2773 21.6172 10.3815 22.418 10.5898 23.0039C10.7982 23.5898 11.0911 24.013 11.4688 24.2734C11.8594 24.5339 12.3021 24.6641 12.7969 24.6641C13.3307 24.6641 13.7799 24.4883 14.1445 24.1367C14.5221 23.7852 14.8086 23.2839 15.0039 22.6328C15.1992 21.9688 15.2969 21.168 15.2969 20.2305ZM45.5312 12.5742V17.3203C45.5312 19.3255 45.2839 21.0833 44.7891 22.5938C44.3073 24.0911 43.6172 25.3477 42.7188 26.3633C41.8333 27.3659 40.7591 28.1211 39.4961 28.6289C38.2461 29.1367 36.8594 29.3906 35.3359 29.3906C33.8125 29.3906 32.4193 29.1367 31.1562 28.6289C29.9062 28.1211 28.8255 27.3659 27.9141 26.3633C27.0156 25.3477 26.319 24.0911 25.8242 22.5938C25.3294 21.0833 25.082 19.3255 25.082 17.3203V12.5742C25.082 10.5169 25.3229 8.72005 25.8047 7.18359C26.2865 5.63411 26.9831 4.34505 27.8945 3.31641C28.806 2.27474 29.8867 1.49349 31.1367 0.972656C32.3867 0.438802 33.7734 0.171875 35.2969 0.171875C36.8203 0.171875 38.207 0.438802 39.457 0.972656C40.707 1.49349 41.7878 2.27474 42.6992 3.31641C43.6107 4.34505 44.3073 5.63411 44.7891 7.18359C45.2839 8.72005 45.5312 10.5169 45.5312 12.5742ZM39.8477 17.3203V12.5352C39.8477 11.181 39.75 10.0286 39.5547 9.07812C39.3594 8.11458 39.0664 7.32682 38.6758 6.71484C38.2852 6.10286 37.8099 5.65365 37.25 5.36719C36.6901 5.08073 36.0391 4.9375 35.2969 4.9375C34.5547 4.9375 33.8971 5.08073 33.3242 5.36719C32.7643 5.65365 32.2891 6.10286 31.8984 6.71484C31.5208 7.32682 31.2344 8.11458 31.0391 9.07812C30.8568 10.0286 30.7656 11.181 30.7656 12.5352V17.3203C30.7656 18.6224 30.8633 19.7357 31.0586 20.6602C31.2539 21.5846 31.5469 22.3398 31.9375 22.9258C32.3281 23.5117 32.8034 23.9479 33.3633 24.2344C33.9362 24.5078 34.5938 24.6445 35.3359 24.6445C36.0651 24.6445 36.7096 24.5078 37.2695 24.2344C37.8424 23.9479 38.3177 23.5117 38.6953 22.9258C39.0729 22.3398 39.3594 21.5846 39.5547 20.6602C39.75 19.7357 39.8477 18.6224 39.8477 17.3203ZM65.4531 12.0859V16.8125H53.793V12.0859H65.4531ZM55.4141 0.5625V29H49.6914V0.5625H55.4141ZM69.5938 0.5625V29H63.9297V0.5625H69.5938ZM84.9062 5.64062L78.793 29H72.7578L81.6445 0.5625H85.4141L84.9062 5.64062ZM89.7305 29L83.5781 5.64062L83.0117 0.5625H86.8398L95.8047 29H89.7305ZM89.9453 18.3945V23.1406H77.1133V18.3945H89.9453ZM98.5391 0.5625H107.66C109.561 0.5625 111.182 0.888021 112.523 1.53906C113.865 2.1901 114.893 3.15365 115.609 4.42969C116.326 5.70573 116.684 7.28125 116.684 9.15625C116.684 10.6927 116.475 12.0078 116.059 13.1016C115.642 14.1823 115.049 15.0872 114.281 15.8164C113.513 16.5326 112.595 17.1055 111.527 17.5352L109.789 18.5703H102.387L102.367 13.8242H107.504C108.285 13.8242 108.93 13.6549 109.438 13.3164C109.958 12.9648 110.342 12.4766 110.59 11.8516C110.85 11.2135 110.98 10.4714 110.98 9.625C110.98 8.72656 110.863 7.95833 110.629 7.32031C110.408 6.66927 110.049 6.17448 109.555 5.83594C109.073 5.48438 108.441 5.30859 107.66 5.30859H104.262V29H98.5391V0.5625ZM111.449 29L106.234 16.3242L112.23 16.3047L117.562 28.7266V29H111.449Z" fill="url(#paint0_linear_1_3)"/>
</g>
<defs>
<filter id="filter0_d_1_3" x="0.535156" y="0.171875" width="121.027" height="37.2188" filterUnits="userSpaceOnUse" color-interpolation-filters="sRGB">
<feFlood flood-opacity="0" result="BackgroundImageFix"/>
<feColorMatrix in="SourceAlpha" type="matrix" values="0 0 0 0 0 0 0 0 0 0 0 0 0 0 0 0 0 0 127 0" result="hardAlpha"/>
<feOffset dy="4"/>
<feGaussianBlur stdDeviation="2"/>
<feComposite in2="hardAlpha" operator="out"/>
<feColorMatrix type="matrix" values="0 0 0 0 0 0 0 0 0 0 0 0 0 0 0 0 0 0 0.25 0"/>
<feBlend mode="normal" in2="BackgroundImageFix" result="effect1_dropShadow_1_3"/>
<feBlend mode="normal" in="SourceGraphic" in2="effect1_dropShadow_1_3" result="shape"/>
</filter>
<linearGradient id="paint0_linear_1_3" x1="-15" y1="32" x2="137" y2="32" gradientUnits="userSpaceOnUse">
<stop stop-color="#4AC7FA"/>
<stop offset="1" stop-color="#E649F5"/>
</linearGradient>
</defs>
</svg>
